# xmcd CD database file
#
# Track frame offsets:
#	150
#	14215
#	35202
#	45455
#	59825
#	77832
#	87435
#	105115
#	120852
#	134760
#	156145
#	172457
#	187535
#
# Disc length: 2743 seconds
#
# Revision: 6
# Processed by: cddbd v1.5.2PL0 Copyright (c) Steve Scherf et al.
# Submitted via: CDex 1.77
#
DISCID=b00ab50d
DTITLE=Vince Gill - The Key
DYEAR=1998
DGENRE=Country
TTITLE0=Don't Come Cryin' To Me
TTITLE1=If You Ever Have Forever In Mind
TTITLE2=I Never Really Knew You
TTITLE3=Kindly Keep It Country
TTITLE4=All Those Years
TTITLE5=I'll Take Texas
TTITLE6=My Kind Of Woman, My Kind Of Man (with Patty Loveless)
TTITLE7=There's Not Much Love Here Anymore
TTITLE8=Let Her In
TTITLE9=The Hills Of Caroline
TTITLE10=Live To Tell It All
TTITLE11=What They All Call Love
TTITLE12=The Key To Life
EXTD=YEAR: 1998
EXTT0=
EXTT1=
EXTT2=
EXTT3=
EXTT4=
EXTT5=
EXTT6=
EXTT7=
EXTT8=
EXTT9=
EXTT10=
EXTT11=
EXTT12=
PLAYORDER=
